<svg width="16" height="16" viewBox="0 0 16 16" fill="none" xmlns="http://www.w3.org/2000/svg">
<path d="M5.68266 12.2728C5.68266 12.3307 5.61774 12.377 5.53589 12.377C5.44274 12.3857 5.37782 12.3394 5.37782 12.2728C5.37782 12.2149 5.44274 12.1686 5.5246 12.1686C5.60927 12.1599 5.68266 12.2062 5.68266 12.2728ZM4.80484 12.1425C4.78508 12.2004 4.84153 12.267 4.92621 12.2844C4.9996 12.3133 5.08427 12.2844 5.10121 12.2265C5.11815 12.1686 5.06452 12.102 4.97984 12.0759C4.90645 12.0557 4.8246 12.0846 4.80484 12.1425ZM6.05242 12.0933C5.97056 12.1136 5.91411 12.1686 5.92258 12.2351C5.93105 12.293 6.00444 12.3307 6.08911 12.3104C6.17097 12.2901 6.22742 12.2351 6.21895 12.1772C6.21048 12.1222 6.13427 12.0846 6.05242 12.0933ZM7.90968 1C3.99476 1 1 4.04834 1 8.06358C1 11.274 2.97016 14.0213 5.78427 14.9882C6.14556 15.0548 6.27258 14.8261 6.27258 14.6379C6.27258 14.4584 6.26411 13.4684 6.26411 12.8604C6.26411 12.8604 4.28831 13.2947 3.87339 11.9978C3.87339 11.9978 3.55161 11.1553 3.08871 10.9382C3.08871 10.9382 2.44234 10.4837 3.13387 10.4924C3.13387 10.4924 3.83669 10.5503 4.22339 11.2393C4.84153 12.3567 5.87742 12.0354 6.28105 11.8443C6.34597 11.3811 6.52944 11.0598 6.73266 10.8687C5.15484 10.6893 3.5629 10.4548 3.5629 7.66987C3.5629 6.87377 3.77742 6.47427 4.22903 5.96477C4.15565 5.7766 3.91573 5.00077 4.30242 3.99913C4.89234 3.81096 6.25 4.78075 6.25 4.78075C6.81452 4.61864 7.42137 4.53469 8.02258 4.53469C8.62379 4.53469 9.23065 4.61864 9.79516 4.78075C9.79516 4.78075 11.1528 3.80806 11.7427 3.99913C12.1294 5.00366 11.8895 5.7766 11.8161 5.96477C12.2677 6.47717 12.5444 6.87667 12.5444 7.66987C12.5444 10.4635 10.8819 10.6864 9.30403 10.8687C9.56371 11.0974 9.78387 11.5317 9.78387 12.212C9.78387 13.1876 9.7754 14.3947 9.7754 14.6321C9.7754 14.8203 9.90524 15.049 10.2637 14.9824C13.0863 14.0213 15 11.274 15 8.06358C15 4.04834 11.8246 1 7.90968 1ZM3.74355 10.9845C3.70685 11.0135 3.71532 11.0801 3.76331 11.1351C3.80847 11.1814 3.87339 11.2017 3.91008 11.164C3.94677 11.1351 3.93831 11.0685 3.89032 11.0135C3.84516 10.9672 3.78024 10.9469 3.74355 10.9845ZM3.43871 10.7501C3.41895 10.7877 3.44718 10.834 3.50363 10.863C3.54879 10.8919 3.60524 10.8832 3.625 10.8427C3.64476 10.8051 3.61653 10.7587 3.56008 10.7298C3.50363 10.7124 3.45847 10.7211 3.43871 10.7501ZM4.35323 11.7806C4.30806 11.8183 4.325 11.9051 4.38992 11.9601C4.45484 12.0267 4.53669 12.0354 4.57339 11.9891C4.61008 11.9514 4.59315 11.8646 4.53669 11.8096C4.4746 11.743 4.38992 11.7343 4.35323 11.7806ZM4.03145 11.3551C3.98629 11.384 3.98629 11.4593 4.03145 11.5259C4.07661 11.5925 4.15282 11.6214 4.18952 11.5925C4.23468 11.5548 4.23468 11.4796 4.18952 11.413C4.15 11.3464 4.07661 11.3175 4.03145 11.3551Z" fill="#21252A"/>
</svg>
